<svg xmlns:xlink="http://www.w3.org/1999/xlink" xmlns="http://www.w3.org/2000/svg" version="1.1" viewBox="0.0 0.0 960.0 720.0" fill="none" stroke="none">
<g>
<path fill="#000000" d="m468.3829 244.00444c10.802521 0 18.819122 2.7006226 24.049805 8.101822c5.2875366 5.4012146 7.931305 14.213715 7.931305 26.43753c0 26.551208 -10.66037 39.826843 -31.98111 39.826843c-9.437958 0 -17.141876 -3.2123108 -23.111664 -9.636902c-5.912964 -6.481476 -8.869446 -16.00467 -8.869446 -28.56958c0 -11.541534 2.956482 -20.439331 8.869446 -26.693375c5.9697876 -6.310898 13.673706 -9.466339 23.111664 -9.466339zm130.99466 -110.09947c-20.638489 13.986298 -41.532837 24.930862 -62.682983 32.833694c-18.54065 6.896454 -39.18976 10.344681 -61.947357 10.344681c-3.1333008 0 -6.306549 -0.06535339 -9.519775 -0.1960907c-40.196716 0 -72.177826 9.2673645 -95.94333 27.802048c-23.70868 18.477829 -35.56299 44.318375 -35.56299 77.52161c0 18.534698 4.008301 34.255066 12.024902 47.161133c8.073425 12.906067 21.519714 24.447632 40.338837 34.624634c-10.461395 6.2540283 -19.018097 14.469574 -25.670166 24.646576c-6.6520996 10.120148 -9.978119 20.581451 -9.978119 31.38388c0 16.772186 7.675476 30.30365 23.026398 40.59439c15.407776 10.29071 39.17331 15.436096 71.29654 15.436096l38.803772 0c10.461365 0 18.051544 1.933075 22.770538 5.7991943c4.718994 3.86615 7.0784607 8.755707 7.0784607 14.668579c0 7.334259 -3.2407227 13.190308 -9.722229 17.568176c-6.424652 4.3778076 -19.074951 6.5667114 -37.950928 6.5667114c-14.668671 0 -25.670166 -0.8812866 -33.004486 -2.6437378c-7.3343506 -1.7625122 -12.39447 -4.5768433 -15.180389 -8.442963c-2.7858887 -3.8092651 -4.1788635 -9.3810425 -4.1788635 -16.715332l-92.78784 0c0 19.558075 4.093567 36.131317 12.280731 49.719574c8.244019 13.645203 22.742126 24.305481 43.494324 31.980896c20.809021 7.732239 49.549377 11.598389 86.22107 11.598389c49.97583 0 88.32471 -8.670349 115.04669 -26.011108c26.721985 -17.283875 40.083008 -40.935547 40.083008 -70.954895c0 -16.089905 -4.633728 -30.502625 -13.901123 -43.23813c-9.267395 -12.735504 -22.457825 -22.599823 -39.57129 -29.592957c-17.113464 -6.993164 -37.18335 -10.489746 -60.209778 -10.489746l-40.338837 0c-11.2005005 0 -18.563263 -1.2223816 -22.088287 -3.6671143c-3.4681702 -2.4447632 -5.2022705 -5.5717773 -5.2022705 -9.381073c0 -4.548401 2.1036682 -7.87442 6.3109436 -9.978027c6.2540894 1.0233765 16.203766 1.5350952 29.84903 1.5350952c25.130066 0 47.04779 -3.9230042 65.753174 -11.768982c18.705383 -7.845978 33.118225 -18.847382 43.238464 -33.004242c10.120239 -14.15686 15.180359 -29.962524 15.180359 -47.41696c0 -18.875824 -4.3778687 -33.800232 -13.133545 -44.773224c-8.698914 -11.029846 -22.486328 -20.55304 -41.362244 -28.56958c34.567993 0 61.119446 -4.20726 79.654236 -12.62178l-22.514648 -72.31941z" fill-rule="evenodd"/>
</g>
</svg>