<svg xmlns="http://www.w3.org/2000/svg" viewBox="0 0 236 68">
  <defs>
    <style>
      .cls-1 {
        fill: #fff;
      }
    </style>
  </defs>
  <g id="Layer_4" data-name="Layer 4">
    <g>
      <g>
        <path class="cls-1" d="M110.9954,31.2128s-6.3422,9.0324-12.9,9.0324H89.4972c-6.6741,0-14.1744-8.289-17.841-11.7548S53.1848,10.1092,53.1848,10.1092H38.3192v1.6491h4.7867a3.6138,3.6138,0,0,1,3.7112,3.5079V39.2341a1.208,1.208,0,0,1-1.2406,1.1727H38.3192V42.056H56.6967V40.4068H49.8024a1.2081,1.2081,0,0,1-1.2407-1.1727V14.6668L76.16,41.91h31.1189l5.1651-10.324Z"/>
        <path class="cls-1" d="M76.0137,12.9835v8.841a11.0792,11.0792,0,0,0,3.8844,8.36L83.9689,33.72V25.2335H96.75a1.2754,1.2754,0,0,1,1.31,1.238v4.23H99.804V18.1164H98.0593v3.9915a1.5209,1.5209,0,0,1-1.5619,1.4764H83.9689V12.905a1.1814,1.1814,0,0,1,1.2132-1.1467h16.45a5.7618,5.7618,0,0,1,5.205,3.1486l1.4142,2.8975,1.5845-.6909-3.4186-7.0043H70.9242v1.6491h3.7934A1.2622,1.2622,0,0,1,76.0137,12.9835Z"/>
        <path class="cls-1" d="M181.2316,9.1059a18.9782,18.9782,0,0,0-2.2256-.1382c-8.4591,0-12.8122,4.4578-12.9928,4.6474l1.2932,1.1065c.04-.0406,3.9577-3.9944,11.4159-4.0954,11.5836.2514,13.0706,10.534,13.0706,15.3277,0,4.7-.7652,14.8992-17.0565,14.8992-7.317,0-13.5175-4.694-14.8483-12.1843l2.0855,11.738h0l-4.8587-27.348a1.137,1.137,0,0,1,1.1641-1.3h4.5364V10.1092H142.959v1.6491h2.56a4.1357,4.1357,0,0,1,2.7537,1.0445l-9.1621,19.2054-9.43-19.32a.6583.6583,0,0,1,.6293-.9295h2.2337V10.1092H115.1649v1.6491h3.413a2.0246,2.0246,0,0,1,2.0758,2.2838l-4.0681,25.23a1.3914,1.3914,0,0,1-1.3973,1.1348h-4.796V42.056h16.03V40.4068h-6.61a1.3628,1.3628,0,0,1-1.3973-1.5373L122.41,14.09l13.6064,27.8782,4.078-7.944,9.2807-19.5138a3.6084,3.6084,0,0,1,.118.4261l4.1854,23.5583a1.6715,1.6715,0,0,1-1.7113,1.9118h-5.7457V42.056h18.0089c3.7053.28,7.8763,1.1828,13.0023,1.1828,15.7631,0,23.086-8.0537,23.086-17.09C200.3189,15.0913,191.269,9.6453,181.2316,9.1059Z"/>
      </g>
      <g>
        <path class="cls-1" d="M46.25,48.592l4.8931,5.7936V48.592h1.5564v8.3011H51.3312l-4.9221-5.8886v5.8886H44.8527V48.592Z"/>
        <path class="cls-1" d="M62.2471,48.592v1.254H58.515v2.18h3.5728V53.28H58.515v2.3588H62.33v1.254h-5.406V48.592Z"/>
        <path class="cls-1" d="M67.7621,48.592v4.831a2.6555,2.6555,0,0,0,.2206,1.1824,1.7394,1.7394,0,0,0,.7224.7249,2.3206,2.3206,0,0,0,1.1671.2854,2.622,2.622,0,0,0,1.2412-.27,1.6978,1.6978,0,0,0,.7462-.7368,2.9152,2.9152,0,0,0,.2351-1.2923V48.592h1.5922v4.9319A3.2931,3.2931,0,0,1,72.69,56.1a4.0563,4.0563,0,0,1-2.818.9,4.4773,4.4773,0,0,1-1.9832-.41,2.8955,2.8955,0,0,1-1.282-1.1858,3.6116,3.6116,0,0,1-.4422-1.8208V48.592Z"/>
        <path class="cls-1" d="M80.8239,48.592a2.7473,2.7473,0,0,1,1.892.6479,2.1486,2.1486,0,0,1,.7309,1.6875,2.1161,2.1161,0,0,1-.3629,1.2327,2.3987,2.3987,0,0,1-1.0751.8289,2.3912,2.3912,0,0,1,.7011.5826,7.4834,7.4834,0,0,1,.7607,1.2416q.7539,1.51,1.12,2.08H82.8164q-.1827-.2734-.4958-.8736a19.0855,19.0855,0,0,0-1.0018-1.7855,2.4,2.4,0,0,0-.6134-.6534,1.2069,1.2069,0,0,0-.678-.1934H79.45v3.5059H77.8585V48.592Zm-.36,3.5417a1.4344,1.4344,0,0,0,.9822-.3152,1.09,1.09,0,0,0,.3561-.8617,1.0253,1.0253,0,0,0-.3535-.8527,1.5836,1.5836,0,0,0-1.0078-.282H79.45v2.3116Z"/>
        <path class="cls-1" d="M92.2219,48.592l3.6375,8.3011H94.18l-.8553-2.02h-3.66l-.7956,2.02H87.1993l3.3955-8.3011Zm-2.0752,5.0627h2.6587l-1.3911-3.2861Z"/>
        <path class="cls-1" d="M100.8326,48.592v7.0471h3.997v1.254H99.2413V48.592Z"/>
        <path class="cls-1" d="M115.536,48.592l2.7064,3.2742,2.7055-3.2742h1.4209v8.3011h-1.5921V51.0642H120.73l-2.3818,2.9232h-.2241l-2.3809-2.9232h-.0477v5.8289H114.104V48.592Z"/>
        <path class="cls-1" d="M130.82,48.4851a4.9122,4.9122,0,0,1,2.3017.532,4.0735,4.0735,0,0,1,1.63,1.5329,4.2548,4.2548,0,0,1,.0153,4.3557,4.0957,4.0957,0,0,1-1.6271,1.5448,5.1712,5.1712,0,0,1-4.6572-.0089,4.1118,4.1118,0,0,1-2.214-3.6959,4.2075,4.2075,0,0,1,.5835-2.1454,4.0717,4.0717,0,0,1,1.61-1.56A4.8732,4.8732,0,0,1,130.82,48.4851Zm-2.9066,4.2606a2.9709,2.9709,0,0,0,.3714,1.4853,2.5947,2.5947,0,0,0,1.0342,1.0222,3.0785,3.0785,0,0,0,1.501.3625,2.8492,2.8492,0,0,0,2.0836-.8025,2.7712,2.7712,0,0,0,.8161-2.0675,3.0126,3.0126,0,0,0-.368-1.4886,2.5654,2.5654,0,0,0-1.0376-1.0252,3.2979,3.2979,0,0,0-3.0122.003,2.5241,2.5241,0,0,0-1.029,1.0222A3.0522,3.0522,0,0,0,127.9137,52.7457Z"/>
        <path class="cls-1" d="M142.7141,48.592a4.8251,4.8251,0,0,1,2.2873.529,3.8226,3.8226,0,0,1,1.5564,1.4853,4.2109,4.2109,0,0,1,.5545,2.1509,4.1613,4.1613,0,0,1-.5571,2.16,3.7541,3.7541,0,0,1-1.5836,1.4588,5.155,5.155,0,0,1-2.3521.5171h-3.3538V48.592Zm-.1653,7.0471a2.8631,2.8631,0,0,0,2.1195-.799,3.1709,3.1709,0,0,0-.006-4.2159,2.9837,2.9837,0,0,0-2.1663-.7782h-1.639v5.7931Z"/>
        <path class="cls-1" d="M156.3355,48.592v1.254h-3.732v2.18h3.5727V53.28h-3.5727v2.3588h3.8147v1.254h-5.406V48.592Z"/>
        <path class="cls-1" d="M161.91,48.592v7.0471h3.997v1.254h-5.5883V48.592Z"/>
        <path class="cls-1" d="M171.04,48.592v8.3011h-1.5921V48.592Z"/>
        <path class="cls-1" d="M176.7021,48.592l4.8932,5.7936V48.592h1.5563v8.3011h-1.3681l-4.9221-5.8886v5.8886H175.305V48.592Z"/>
        <path class="cls-1" d="M191.6968,48.4851a7.2092,7.2092,0,0,1,3.0182.6832v1.4678a6.4319,6.4319,0,0,0-2.9475-.7667,3.4431,3.4431,0,0,0-1.6032.3625,2.5933,2.5933,0,0,0-1.0879,1.0431,3.0233,3.0233,0,0,0-.3859,1.518,2.6555,2.6555,0,0,0,.84,2.0471,3.134,3.134,0,0,0,2.214.7756,3.84,3.84,0,0,0,.7215-.0656,4.8424,4.8424,0,0,0,.8229-.25V53.9222h-1.3621v-1.254H194.88v3.4229a4.7622,4.7622,0,0,1-1.4592.6682A6.4714,6.4714,0,0,1,191.65,57a5.1152,5.1152,0,0,1-2.3614-.5405,4.0314,4.0314,0,0,1-1.65-1.5155,4.101,4.101,0,0,1-.5929-2.1748,4.1615,4.1615,0,0,1,.5988-2.2042,4.0734,4.0734,0,0,1,1.668-1.5334A5.165,5.165,0,0,1,191.6968,48.4851Z"/>
      </g>
    </g>
  </g>
</svg>
